<svg  xmlns="http://www.w3.org/2000/svg" viewBox="0 0 122.88 84.68" width="100" height="100"><title>booking-reservation</title><path d="M24.15,0H99.91a8.94,8.94,0,0,1,6.48,2.71h0a12.7,12.7,0,0,1,3.3,6.51l13,65a7.91,7.91,0,0,1,.15,1.52,8.31,8.31,0,0,1-2.59,5.9,10.71,10.71,0,0,1-5.39,2.86h0a9.87,9.87,0,0,1-2,.2H38.11c-.26,0-.52,0-.77,0H5.81C1.44,84.22-.28,81,0,76.75l12.23-62c.72-2.77,1.39-5.67,2.24-8A7.83,7.83,0,0,1,15,5.48h0l.05-.1h0A8.82,8.82,0,0,1,16.74,3.1,10.78,10.78,0,0,1,22,.23,10.27,10.27,0,0,1,24.15,0ZM48.51,47c-5-5.37,2.66-13.35,8.19-8.3,1.95,1.78,4.79,4.38,6.76,6.15L77.92,26.91c5.3-5.46,13.64,2.56,8.42,8.06L68,57a5.88,5.88,0,0,1-8.14.36c-3.23-3.08-8-7.51-11.36-10.35ZM99.91,6.51H24.15a3.79,3.79,0,0,0-.77.08,4.13,4.13,0,0,0-2,1.09,1.86,1.86,0,0,0-.63,1.24c1.57,16.67,10.15,47.38,14,65.23a6.54,6.54,0,0,0,1.57,3.23h0a2.56,2.56,0,0,0,1.85.78h74.83a4,4,0,0,0,.69-.07h0a4.16,4.16,0,0,0,2.08-1.1,2,2,0,0,0,.66-1.3l0-.25-13-65a6.2,6.2,0,0,0-1.52-3.18,2.59,2.59,0,0,0-1.88-.8Z"/></svg>